<?xml version="1.0" encoding="utf-8"?>
<!-- Generator: Adobe Illustrator 20.0.0, SVG Export Plug-In . SVG Version: 6.00 Build 0)  -->
<svg version="1.1" id="Layer_1" xmlns="http://www.w3.org/2000/svg" xmlns:xlink="http://www.w3.org/1999/xlink" x="0px" y="0px"
	 viewBox="0 0 118.9 57.4" style="enable-background:new 0 0 118.9 57.4;" xml:space="preserve">
<style type="text/css">
	.st0{fill:#8884FD;}
	.st1{fill:#FC736B;}
	.st2{fill:#FBB342;}
	.st3{fill:#F5F5F5;}
	.st4{fill:#FFFFFF;}
</style>
<g>
	<g>
		<path d="M99.5,54.1c-6,0-11.1-5-11.1-11.1S93.5,32,99.5,32c6,0,11.1,5,11.1,11.1S105.6,54.1,99.5,54.1z"/>
	</g>
</g>
<g>
	<g>
		<path d="M48.9,54.1c-6,0-11.1-5-11.1-11.1S42.9,32,48.9,32S60,37,60,43S55,54.1,48.9,54.1z"/>
	</g>
</g>
<path class="st0" d="M116,25.8c-1.6-2.2-3.8-4-6-4.4c-2.4-0.4-6.2-1-10.1-1.8c-6.4-1.2-9.5-1.8-11-2l-6.1-9.9
	C80.1,3.4,75.7,1,70.9,1h-34C31.4,1,26.4,4,24,8.8l-4,8.3h-8.9C5.4,17.1,1,21.5,1,27.2v8.1c0,5.6,4.4,10.1,10.1,10.1h2.3h3.7h86.6
	h2.8h3c4.4,0,7.9-8.1,8.1-9.5C118.6,31.2,117.4,27.8,116,25.8z"/>
<g>
	<path class="st1" d="M1,26.8h4c1.1,0,2,0.9,2,2v0c0,1.1-0.9,2-2,2H1V26.8z"/>
</g>
<g>
	<path class="st2" d="M111.9,26.8h4.7c0,0,0.5,0.8,0.8,2c0.4,1.2,0.4,2,0.4,2h-5.9c-1.1,0-2-0.9-2-2v0
		C109.9,27.7,110.8,26.8,111.9,26.8z"/>
</g>
<g>
	<path class="st3" d="M65,17.5H38.6c-1.6,0-2.8-0.8-3.6-2.2c-0.8-1.4-0.8-3,0-4.2l3-5c1-1.6,2.8-2.6,4.6-2.6H65v4v5.8V17.5z"/>
</g>
<path class="st4" d="M88.8,17.5l-6.1-9.9c-1.1-1.7-2.5-3.1-4-4.2H59.6L63,17.5h25.9C88.9,17.5,88.8,17.5,88.8,17.5z"/>
<path class="st2" d="M88,30.8h8.4c1.1,0,2-0.9,2-2v0c0-1.1-0.9-2-2-2H88c-1.1,0-2,0.9-2,2v0C86,29.9,86.9,30.8,88,30.8z"/>
<g>
	<g>
		<path d="M22.2,56.4c-6,0-11.1-5-11.1-11.1s5-11.1,11.1-11.1s11.1,5,11.1,11.1S28.2,56.4,22.2,56.4z"/>
	</g>
</g>
<g>
	<g>
		<path d="M72.5,56.4c-6,0-11.1-5-11.1-11.1s5-11.1,11.1-11.1s11.1,5,11.1,11.1S78.6,56.4,72.5,56.4z"/>
	</g>
</g>
<path class="st3" d="M22.2,38.2c-3.8,0-7,3.2-7,7s3.2,7,7,7s7-3.2,7-7S26,38.2,22.2,38.2z"/>
<g>
	<path class="st0" d="M22.2,48.3c-1.6,0-3-1.4-3-3s1.4-3,3-3s3,1.4,3,3S23.8,48.3,22.2,48.3z"/>
</g>
<path class="st3" d="M72.5,38.2c-3.8,0-7,3.2-7,7s3.2,7,7,7s7-3.2,7-7S76.4,38.2,72.5,38.2z"/>
<g>
	<path class="st0" d="M72.5,48.3c-1.6,0-3-1.4-3-3s1.4-3,3-3s3,1.4,3,3S74.1,48.3,72.5,48.3z"/>
</g>
</svg>
