<?xml version="1.0" encoding="utf-8"?>
<!-- Generator: Adobe Illustrator 20.0.0, SVG Export Plug-In . SVG Version: 6.00 Build 0)  -->
<svg version="1.1" id="Layer_1" xmlns="http://www.w3.org/2000/svg" xmlns:xlink="http://www.w3.org/1999/xlink" x="0px" y="0px"
	 viewBox="0 0 80 73.2" style="enable-background:new 0 0 80 73.2;" xml:space="preserve">
<style type="text/css">
	.st0{fill:#4D4D4D;}
	.st1{fill:#3FD552;}
	.st2{fill:#6BDE63;}
</style>
<g>
	<g>
		<path class="st0" d="M64.9,71.9H15.1c-6.9,0-12.6-5.6-12.6-12.6V29.2c0-6.9,5.6-12.6,12.6-12.6h6.5v-4.3C21.6,6.1,26.7,1,33,1
			h13.9c6.3,0,11.4,5.1,11.4,11.4v4.3h6.5c6.9,0,12.5,5.6,12.7,12.5l0,30.3C77.4,66.3,71.8,71.9,64.9,71.9z M15.1,20.9
			c-4.6,0-8.3,3.7-8.3,8.3v30.2c0,4.6,3.7,8.3,8.3,8.3h49.8c4.6,0,8.3-3.7,8.3-8.3V29.2c-0.1-4.6-3.9-8.3-8.4-8.3H54v-8.5
			c0-3.9-3.2-7.1-7.1-7.1H33c-3.9,0-7.1,3.2-7.1,7.1v8.5H15.1z"/>
		<g>
			<path class="st1" d="M22,15.8H1v44.9C1,67,6.2,72.2,12.5,72.2h55C73.8,72.2,79,67,79,60.7V27.3V15.8H57.9 M51,15.8H28.8"/>
		</g>
	</g>
</g>
<g>
	<path class="st2" d="M22,15.8H1v44.9C1,67,6.2,72.2,12.5,72.2h44C62.8,72.2,68,67,68,60.7V27.3V15.8H47.9 M51,15.8H28.8"/>
</g>
</svg>
