<?xml version="1.0" encoding="utf-8"?>
<!-- Generator: Adobe Illustrator 20.0.0, SVG Export Plug-In . SVG Version: 6.00 Build 0)  -->
<svg version="1.1" id="Layer_1" xmlns="http://www.w3.org/2000/svg" xmlns:xlink="http://www.w3.org/1999/xlink" x="0px" y="0px"
	 viewBox="0 0 96.2 59.3" style="enable-background:new 0 0 96.2 59.3;" xml:space="preserve">
<style type="text/css">
	.st0{fill:#08B7EA;}
	.st1{fill:#4D4D4D;}
</style>
<path class="st0" d="M90.2,58.3H6c-2.7,0-5-2.2-5-5V6c0-2.8,2.2-5,5-5h84.2c2.8,0,5,2.2,5,5v47.3C95.2,56.1,92.9,58.3,90.2,58.3z"/>
<rect x="81.1" y="44.5" transform="matrix(-1.346054e-10 1 -1 -1.346054e-10 132.392 -33.7268)" class="st1" width="4" height="9.7"/>
<rect x="1" y="10.2" class="st1" width="94.2" height="14.7"/>
<rect x="67.1" y="44.5" transform="matrix(-1.346054e-10 1 -1 -1.346054e-10 118.3912 -19.7259)" class="st1" width="4" height="9.7"/>
<path class="st1" d="M10,49.3L10,49.3c0-1.1,0.9-2,2-2h5.7c1.1,0,2,0.9,2,2v0c0,1.1-0.9,2-2,2H12C10.9,51.3,10,50.4,10,49.3z"/>
</svg>
