<?xml version="1.0" encoding="utf-8"?>
<!-- Generator: Adobe Illustrator 20.0.0, SVG Export Plug-In . SVG Version: 6.00 Build 0)  -->
<svg version="1.1" id="Layer_1" xmlns="http://www.w3.org/2000/svg" xmlns:xlink="http://www.w3.org/1999/xlink" x="0px" y="0px"
	 viewBox="0 0 96.2 59.3" style="enable-background:new 0 0 96.2 59.3;" xml:space="preserve">
<style type="text/css">
	.st0{fill:#6ADF63;}
	.st1{fill:#3FD552;}
	.st2{fill:#FFFFFF;}
</style>
<path class="st0" d="M90.2,58.3H6c-2.7,0-5-2.2-5-5V6c0-2.8,2.2-5,5-5h84.2c2.8,0,5,2.2,5,5v47.3C95.2,56.1,92.9,58.3,90.2,58.3z"/>
<circle class="st1" cx="48.1" cy="29.7" r="19.5"/>
<rect x="81.9" y="5.4" transform="matrix(-1.346054e-10 1 -1 -1.346054e-10 94.0736 -73.7167)" class="st1" width="4" height="9.7"/>
<path class="st1" d="M79.1,49.3L79.1,49.3c0-1.1,0.9-2,2-2h5.7c1.1,0,2,0.9,2,2v0c0,1.1-0.9,2-2,2h-5.7C80,51.3,79.1,50.4,79.1,49.3
	z"/>
<rect x="11.6" y="5.4" transform="matrix(-1.346054e-10 1 -1 -1.346054e-10 23.7404 -3.3835)" class="st1" width="4" height="9.7"/>
<path class="st1" d="M8.7,49.3L8.7,49.3c0-1.1,0.9-2,2-2h5.7c1.1,0,2,0.9,2,2v0c0,1.1-0.9,2-2,2h-5.7C9.6,51.3,8.7,50.4,8.7,49.3z"
	/>
<g>
	<path class="st2" d="M51,31.2c3.9,0,6.6-2.5,6.6-6.3s-2.7-6.3-6.6-6.3h-7.9v15.7h-2.1v2.2h2.1V40h2.3v-3.5h8.2v-2.2h-8.2v-3.1H51z
		 M45.3,20.7h5.5c2.7,0,4.5,1.4,4.5,4.2s-1.9,4.3-4.5,4.3h-5.5V20.7z"/>
</g>
</svg>
